:SAMPLES-PER-SECOND 30
:FULLY-SPECIFIED
:DEGREES
702
root  -48.4805 37.0654 9.16714 129.915 -69.5494 -155.136
RightUpLeg  -61.5445 -15.0284 0.0284371
RightLeg  87.4103 0.526824 13.3995
RightFoot  -14.7528 0.326477 14.2789
RightToes  5.82063e-011 0 -3.6325e-017
Spine  60.4905 -0.957866 16.2936
Spine1  -17.0422 9.76126 -6.40961
HEad  38.2368 26.5899 120.232
LeftShoulder1  0.283545 -2.92918 4.60353
LeftArm  -43.6798 -8.71625 -15.8684
LeftForeArm  4.02155 -74.0436 -46.7358
LeftHand  -0.680787 -6.55195 6.96131
RightShoulder  0.115673 3.45046 -7.78259
RightArm  -54.9763 42.3275 17.3398
RightForeArm  5.92137 75.4137 55.0658
RightHand  -0.262637 1.70212 -4.48638
LeftUpLeg  -7.06404 28.4155 28.6883
LeftLeg  39.421 -16.2559 -12.9129
LeftFoot  9.71503 1.74978 -7.80866
LeftToes  1.54581e-011 7.46816e-011 -4.69922e-011
703
root  -50.1878 34.7034 9.25246 124.56 -79.613 -147.352
RightUpLeg  -54.6548 -18.1068 -10.2124
RightLeg  75.2417 4.36452 18.0646
RightFoot  -13.5019 0.24379 17.4769
RightToes  5.82063e-011 0 -3.6325e-017
Spine  58.6125 -1.50811 8.09677
Spine1  -21.3203 3.6897 -2.26586
HEad  49.1245 21.7482 142.865
LeftShoulder1  0.503211 -1.49365 -1.80625
LeftArm  -43.4691 -8.24463 -13.5559
LeftForeArm  23.7425 -77.1239 -66.0095
LeftHand  -0.498648 -4.06066 6.40624
RightShoulder  0.14406 4.38587 -7.57744
RightArm  -49.0374 36.66 21.1967
RightForeArm  29.8848 77.6714 81.3151
RightHand  -0.312496 0.947211 -5.82485
LeftUpLeg  -18.5307 15.8575 14.6167
LeftLeg  52.0896 -4.39336 -5.79802
LeftFoot  -8.52828 -0.329678 5.33889
LeftToes  1.54581e-011 7.46816e-011 -4.69922e-011
704
root  -51.6357 32.7444 8.98054 135.151 -86.8296 -157.16
RightUpLeg  -44.962 -13.8254 -16.2305
RightLeg  66.7033 8.09433 19.1214
RightFoot  -10.4994 -0.231715 18.8888
RightToes  5.82063e-011 0 -3.6325e-017
Spine  57.4076 -1.69219 3.75976
Spine1  -17.1353 0.387073 2.75757
HEad  50.4527 25.9039 142.902
LeftShoulder1  0.439848 -0.192357 -3.88193
LeftArm  -44.6007 -12.2454 -16.8491
LeftForeArm  37.9073 -78.0223 -78.6037
LeftHand  -0.476109 -3.46742 6.49643
RightShoulder  0.296097 3.14707 -4.53029
RightArm  -49.4993 29.3596 20.1231
RightForeArm  71.9648 75.1629 124.921
RightHand  -0.355551 1.08957 -6.50382
LeftUpLeg  -26.123 6.0702 9.58235
LeftLeg  65.1263 -1.40096 -2.59571
LeftFoot  -13.8442 0.137117 2.04565
LeftToes  1.54581e-011 7.46816e-011 -4.69922e-011
705
root  -53.2235 31.2372 8.76126 16.7671 -84.1321 -32.8301
RightUpLeg  -42.04 -14.8202 -17.4593
RightLeg  63.2381 11.3171 22.8052
RightFoot  -8.08549 -0.533828 18.1239
RightToes  5.82063e-011 0 -3.6325e-017
Spine  48.0398 -5.15344 3.66756
Spine1  -7.08501 -3.30526 -2.35611
HEad  48.9237 33.5893 137.308
LeftShoulder1  0.370317 0.59751 -4.81501
LeftArm  -43.7531 -18.7735 -19.6445
LeftForeArm  38.7792 -78.0311 -78.5063
LeftHand  -0.333617 -1.55373 5.69526
RightShoulder  0.355053 1.55603 -1.71064
RightArm  -51.0134 21.4208 22.4083
RightForeArm  95.7856 67.4659 148.657
RightHand  -0.409545 0.948821 -7.60929
LeftUpLeg  -36.4633 -1.65329 4.61562
LeftLeg  74.2145 -0.0949246 0.568082
LeftFoot  -18.3856 0.188448 1.28215
LeftToes  1.54581e-011 7.46816e-011 -4.69922e-011
706
root  -54.125 30.3641 8.13889 -29.477 -80.6875 16.1471
RightUpLeg  -42.6002 -13.8236 -18.1342
RightLeg  63.9794 8.7085 17.7059
RightFoot  -6.42957 -0.27067 4.80006
RightToes  5.82063e-011 0 -3.6325e-017
Spine  48.5746 -3.55975 -0.722703
Spine1  -6.67002 -4.47536 0.263743
HEad  50.829 23.11 160.117
LeftShoulder1  0.458106 0.0230012 -5.33458
LeftArm  -39.9751 -22.0112 -24.3242
LeftForeArm  41.7785 -78.1351 -79.4756
LeftHand  -0.213192 -0.202718 4.51103
RightShoulder  0.424691 0.843399 1.60565
RightArm  -48.9042 12.5305 24.931
RightForeArm  102.298 61.6678 156.046
RightHand  -0.474244 1.59987 -8.03887
LeftUpLeg  -40.408 -3.91928 0.847955
LeftLeg  77.9245 -0.318956 -0.53981
LeftFoot  -20.5785 0.0976741 -0.323221
LeftToes  1.54581e-011 7.46816e-011 -4.69922e-011
